# xmcd CD database file
#
# Track frame offsets:
#	150
#	17223
#	44236
#	68494
#	95750
#	112941
#	144559
#	173327
#	189933
#	208601
#	227356
#	261921
#	283175
#	315504
#
# Disc length: 4219 seconds
#
# Revision: 4
# Processed by: cddbd v1.5.2PL0 Copyright (c) Steve Scherf et al.
# Submitted via: CDex 1.70beta2
#
DISCID=c010790e
DTITLE=Various Artist - Blue Note Revisited
DYEAR=2004
DGENRE=Jazz
TTITLE0=La Funk Mob - Oriental Folk Song
TTITLE1=Kenny Dope - La Malanga
TTITLE2=Kyoto Jazz Massive - Kudu
TTITLE3=DJ Spinna - Lansanna's Priestess
TTITLE4=4hero - Won't You Open Up Your Senses
TTITLE5=Bugz in the Attic - Los Almaitos LatinFunkLoveSong
TTITLE6=Madlib - Young Warrior
TTITLE7=J Dilla - Oblighetto
TTITLE8=DJ Cam - The Emperor (feat. Erik Truffaz)
TTITLE9=DJ Mehdi - FootPrints (Dub)
TTITLE10=Jazzanova - Song of Will
TTITLE11=Osunlade - A Time To Remember
TTITLE12=Herbert - Caravan
TTITLE13=Enhanced - Data Track
EXTD=YEAR: 2004
EXTT0=
EXTT1=
EXTT2=
EXTT3=
EXTT4=
EXTT5=
EXTT6=
EXTT7=
EXTT8=
EXTT9=
EXTT10=
EXTT11=
EXTT12=
EXTT13=
PLAYORDER=
